<?xml version="1.0" encoding="UTF-8" standalone="no"?>
<!-- Created with Inkscape (http://www.inkscape.org/) -->

<svg
   xmlns:dc="http://purl.org/dc/elements/1.1/"
   xmlns:cc="http://creativecommons.org/ns#"
   xmlns:rdf="http://www.w3.org/1999/02/22-rdf-syntax-ns#"
   xmlns:svg="http://www.w3.org/2000/svg"
   xmlns="http://www.w3.org/2000/svg"
   xmlns:xlink="http://www.w3.org/1999/xlink"
   xmlns:sodipodi="http://sodipodi.sourceforge.net/DTD/sodipodi-0.dtd"
   xmlns:inkscape="http://www.inkscape.org/namespaces/inkscape"
   width="744.09448819"
   height="1052.3622047"
   id="svg2"
   version="1.1"
   inkscape:version="0.47 r22583"
   sodipodi:docname="ligtran.svg">
  <defs
     id="defs4">
    <linearGradient
       id="linearGradient3837">
      <stop
         style="stop-color:#000000;stop-opacity:1;"
         offset="0"
         id="stop3839" />
      <stop
         style="stop-color:#b3b3b3;stop-opacity:0.220339;"
         offset="1"
         id="stop3841" />
    </linearGradient>
    <linearGradient
       id="linearGradient3823">
      <stop
         style="stop-color:#ff851c;stop-opacity:1;"
         offset="0"
         id="stop3825" />
      <stop
         style="stop-color:#ff851c;stop-opacity:0;"
         offset="1"
         id="stop3827" />
    </linearGradient>
    <linearGradient
       id="linearGradient3815">
      <stop
         style="stop-color:#1642ee;stop-opacity:1"
         offset="0"
         id="stop3817" />
      <stop
         style="stop-color:#26b4f9;stop-opacity:0;"
         offset="1"
         id="stop3819" />
    </linearGradient>
    <inkscape:perspective
       sodipodi:type="inkscape:persp3d"
       inkscape:vp_x="0 : 526.18109 : 1"
       inkscape:vp_y="0 : 1000 : 0"
       inkscape:vp_z="744.09448 : 526.18109 : 1"
       inkscape:persp3d-origin="372.04724 : 350.78739 : 1"
       id="perspective10" />
    <inkscape:perspective
       id="perspective2838"
       inkscape:persp3d-origin="0.5 : 0.33333333 : 1"
       inkscape:vp_z="1 : 0.5 : 1"
       inkscape:vp_y="0 : 1000 : 0"
       inkscape:vp_x="0 : 0.5 : 1"
       sodipodi:type="inkscape:persp3d" />
    <inkscape:perspective
       id="perspective2867"
       inkscape:persp3d-origin="0.5 : 0.33333333 : 1"
       inkscape:vp_z="1 : 0.5 : 1"
       inkscape:vp_y="0 : 1000 : 0"
       inkscape:vp_x="0 : 0.5 : 1"
       sodipodi:type="inkscape:persp3d" />
    <inkscape:perspective
       id="perspective2881"
       inkscape:persp3d-origin="0.5 : 0.33333333 : 1"
       inkscape:vp_z="1 : 0.5 : 1"
       inkscape:vp_y="0 : 1000 : 0"
       inkscape:vp_x="0 : 0.5 : 1"
       sodipodi:type="inkscape:persp3d" />
    <inkscape:perspective
       id="perspective2895"
       inkscape:persp3d-origin="0.5 : 0.33333333 : 1"
       inkscape:vp_z="1 : 0.5 : 1"
       inkscape:vp_y="0 : 1000 : 0"
       inkscape:vp_x="0 : 0.5 : 1"
       sodipodi:type="inkscape:persp3d" />
    <inkscape:perspective
       id="perspective2909"
       inkscape:persp3d-origin="0.5 : 0.33333333 : 1"
       inkscape:vp_z="1 : 0.5 : 1"
       inkscape:vp_y="0 : 1000 : 0"
       inkscape:vp_x="0 : 0.5 : 1"
       sodipodi:type="inkscape:persp3d" />
    <inkscape:perspective
       id="perspective2923"
       inkscape:persp3d-origin="0.5 : 0.33333333 : 1"
       inkscape:vp_z="1 : 0.5 : 1"
       inkscape:vp_y="0 : 1000 : 0"
       inkscape:vp_x="0 : 0.5 : 1"
       sodipodi:type="inkscape:persp3d" />
    <inkscape:perspective
       id="perspective2956"
       inkscape:persp3d-origin="0.5 : 0.33333333 : 1"
       inkscape:vp_z="1 : 0.5 : 1"
       inkscape:vp_y="0 : 1000 : 0"
       inkscape:vp_x="0 : 0.5 : 1"
       sodipodi:type="inkscape:persp3d" />
    <linearGradient
       inkscape:collect="always"
       xlink:href="#linearGradient3815"
       id="linearGradient3821"
       x1="154.6391"
       y1="140.54153"
       x2="154.6391"
       y2="289.49387"
       gradientUnits="userSpaceOnUse" />
    <linearGradient
       inkscape:collect="always"
       xlink:href="#linearGradient3837"
       id="linearGradient3843"
       x1="492.29047"
       y1="244.16458"
       x2="492.29047"
       y2="14.662408"
       gradientUnits="userSpaceOnUse" />
  </defs>
  <sodipodi:namedview
     id="base"
     pagecolor="#969696"
     bordercolor="#666666"
     borderopacity="1.0"
     inkscape:pageopacity="0"
     inkscape:pageshadow="2"
     inkscape:zoom="0.7"
     inkscape:cx="467.47365"
     inkscape:cy="851.42857"
     inkscape:document-units="px"
     inkscape:current-layer="layer1"
     showgrid="false"
     inkscape:window-width="1024"
     inkscape:window-height="721"
     inkscape:window-x="0"
     inkscape:window-y="25"
     inkscape:window-maximized="1" />
  <metadata
     id="metadata7">
    <rdf:RDF>
      <cc:Work
         rdf:about="">
        <dc:format>image/svg+xml</dc:format>
        <dc:type
           rdf:resource="http://purl.org/dc/dcmitype/StillImage" />
        <dc:title></dc:title>
      </cc:Work>
    </rdf:RDF>
  </metadata>
  <g
     inkscape:label="Layer 1"
     inkscape:groupmode="layer"
     id="layer1">
    <path
       style="fill:#000000"
       d=""
       id="path2844" />
    <path
       style="fill:#ffffff;fill-opacity:0.7318182"
       d="m 156.58652,254.56012 c -12.81543,-4.6136 -24.16932,-18.0692 -25.83436,-30.61651 l -0.56236,-4.23789 -5.71543,0 c -3.73734,0 -8.10655,-0.79027 -12.62431,-2.28341 l -6.90888,-2.28341 -4.43537,1.9797 c -6.187653,2.76181 -20.045925,3.36232 -29.427372,1.27515 C 52.970862,214.3652 36.31585,201.32326 27.148934,183.99414 l -3.791798,-7.16799 0,-66.71214 0,-66.712133 2.680362,-4.226492 C 30.03328,32.874691 36.113135,27.413545 42.792822,24.125146 48.526836,21.3023 49.145196,21.19393 59.518254,21.19393 c 10.653225,0 10.845667,0.03676 17.557432,3.353895 4.698251,2.322001 8.146491,4.84233 11.207586,8.191656 l 4.421441,4.83776 5.318208,-5.171801 c 3.172739,-3.085398 7.810819,-6.390068 11.496929,-8.191655 5.93029,-2.898431 6.59127,-3.019855 16.43889,-3.019855 9.6932,0 10.59335,0.157833 16.29004,2.856295 8.34475,3.95283 15.09688,10.581241 19.16625,18.815073 2.90078,5.869327 3.32173,7.582939 3.63778,14.809137 0.19657,4.494475 -0.0557,9.667695 -0.56048,11.496035 -0.50482,1.82834 -0.76731,3.32426 -0.58331,3.32426 0.18401,0 1.85795,-1.04235 3.71988,-2.31635 5.43498,-3.71879 16.26554,-8.91222 23.01346,-11.035324 8.87833,-2.793404 26.83482,-3.488029 36.98753,-1.430828 9.15411,1.854858 17.61521,4.980932 24.41432,9.020222 2.85672,1.69714 5.366,3.08571 5.57618,3.08571 0.21018,0 0.38215,-4.15273 0.38215,-9.2283 0,-16.659601 6.13699,-27.765327 19.68443,-35.621658 10.54788,-6.116854 25.90175,-6.892395 36.5234,-1.844838 3.18957,1.515728 7.47676,4.217609 9.52708,6.004178 5.16007,4.49629 10.799,13.253305 12.51981,19.442698 l 1.44254,5.188545 14.4129,0 c 15.54648,0 20.82865,0.955151 27.78606,5.024434 4.89382,2.862321 12.29627,10.792881 14.70838,15.757731 l 1.94327,3.99983 7.07046,-5.24243 c 13.57256,-10.06344 27.24586,-15.03906 43.32777,-15.766674 7.90567,-0.357678 11.30554,-0.118777 15.86208,1.114628 5.57287,1.508506 14.73662,6.636936 17.17782,9.613436 1.05209,1.2828 1.82075,1.07469 7.6559,-2.07275 12.67054,-6.834395 24.33832,-9.751644 39.00257,-9.751644 22.08811,0 41.63601,7.916734 57.23558,23.179924 l 6.25724,6.12231 6.34666,-6.45819 c 11.27105,-11.46914 25.70484,-19.27541 41.50812,-22.448974 11.04989,-2.219001 28.98448,-1.431638 39.60082,1.738562 29.30368,8.750502 51.49221,32.314262 57.25495,60.803562 1.2135,5.99917 1.40778,12.36945 1.18509,38.8593 l -0.26635,31.68383 -3.31712,6.70888 c -4.12389,8.34059 -10.8394,14.93566 -19.20301,18.85861 -5.14733,2.41434 -7.27042,2.87821 -14.50566,3.16932 -6.97075,0.28046 -9.49699,-0.004 -14.22686,-1.60174 -11.16673,-3.77222 -19.33642,-11.1346 -24.27938,-21.88019 -1.96172,-4.26461 -2.07246,-5.66985 -2.51626,-31.92964 -0.38568,-22.82068 -0.68562,-27.60531 -1.77259,-28.27593 -3.18736,-1.96651 -3.49411,0.27205 -3.77324,27.53643 l -0.27153,26.52335 -3.31093,6.69571 c -4.18036,8.45398 -11.60023,15.7641 -20.07546,19.77853 -5.72648,2.71244 -6.61379,2.86844 -16.31597,2.86844 -9.61581,0 -10.59635,-0.1681 -15.61329,-2.67657 l -5.35313,-2.67656 -6.24531,3.09934 c -5.53587,2.74727 -7.20814,3.13762 -14.7211,3.43635 -6.74735,0.26828 -9.54151,-0.0237 -13.70184,-1.43195 -4.82911,-1.63457 -5.57454,-1.66982 -9.81406,-0.46388 -6.36087,1.80935 -26.80869,2.55279 -33.80584,1.2291 -26.84035,-5.07751 -48.91853,-21.90127 -59.92486,-45.66324 l -3.01937,-6.51865 -0.36734,12.45022 c -0.43429,14.7189 -1.86521,19.35624 -8.53349,27.65518 -3.36312,4.18556 -5.75854,6.07389 -11.26977,8.88409 l -6.99887,3.56876 -11.75264,0 -11.75263,0 -6.70071,-3.31024 c -3.68539,-1.82063 -7.38621,-4.06771 -8.22405,-4.99351 -1.48538,-1.64133 -1.67942,-1.60871 -7.78675,1.30877 -10.62947,5.07771 -17.7221,6.68658 -31.62521,7.17376 -10.19354,0.35721 -14.05155,0.11491 -20.97831,-1.31753 -9.42222,-1.94847 -19.39835,-5.66596 -26.56995,-9.90097 -2.59779,-1.53406 -4.87405,-2.7892 -5.05838,-2.7892 -0.18432,0 -1.0195,2.1078 -1.85596,4.68399 -5.71406,17.59854 -18.1598,32.27663 -33.86399,39.93806 -12.35871,6.0293 -14.01369,6.20862 -57.10002,6.18728 -35.13781,-0.0174 -38.75207,-0.15867 -42.97772,-1.67992 z"
       id="path2929"
       inkscape:export-filename="/home/ubuntu/reports/misc/path2933-9.png"
       inkscape:export-xdpi="38.064663"
       inkscape:export-ydpi="38.064663" />
    <path
       style="fill:url(#linearGradient3843);fill-opacity:1"
       d="m 334.09341,194.71248 c -22.45674,-2.2493 -41.6114,-16.94873 -48.71934,-37.38763 -3.4351,-9.87762 -4.03398,-19.96153 -3.74092,-62.98867 0.26326,-38.649628 0.29677,-39.286541 2.23061,-42.39576 5.30475,-8.528918 18.15627,-9.818041 24.96592,-2.504303 3.16997,3.404636 3.85122,6.535739 3.85122,17.700613 l 0,10.58522 24.75822,0.286 c 21.69721,0.25063 25.11717,0.48211 27.66163,1.8722 3.33117,1.8199 6.92609,6.9299 7.77575,11.05282 1.44264,7.00038 -4.3604,16.03101 -11.59148,18.03851 -2.14659,0.59595 -12.27293,0.98714 -25.63028,0.99016 l -22.08165,0.005 0,16.47201 c 0,14.40439 0.22886,17.08367 1.8232,21.34493 3.78195,10.10818 13.40456,16.61272 24.49634,16.55864 7.5455,-0.0367 11.49523,-1.34175 16.63307,-5.49545 5.43184,-4.39139 7.49643,-5.31163 11.91694,-5.31163 8.54725,0 14.92495,6.65132 14.85646,15.49382 -0.0421,5.43514 -1.85939,8.46557 -8.25337,13.76293 -11.16346,9.24885 -25.61844,13.45648 -40.95232,11.92062 l 0,-3e-5 z m 69.70021,-0.0376 c -3.90237,-0.85957 -7.24643,-3.39338 -9.47753,-7.18121 -1.67916,-2.85077 -1.78437,-4.63399 -1.78437,-30.24113 0,-30.4872 0.29872,-32.72753 5.8886,-44.1633 8.86371,-18.13331 27.77556,-30.55028 47.15789,-30.96248 5.39442,-0.11473 7.536,0.22887 9.8418,1.57902 5.67123,3.32076 8.55146,9.77989 7.14391,16.02079 -1.53145,6.79024 -6.10017,10.63228 -13.72845,11.54489 -11.65253,1.39406 -18.47677,5.47081 -23.20467,13.86232 l -2.7647,4.90703 -0.44609,27.65783 c -0.4269,26.46751 -0.52984,27.79221 -2.3919,30.78048 -3.2653,5.24022 -9.59887,7.65737 -16.23449,6.19576 z m 110.31811,-0.0364 c -12.48844,-1.36267 -22.33908,-6.35138 -32.37822,-16.39751 -7.80697,-7.81243 -12.64036,-16.05926 -15.17702,-25.89543 -1.7962,-6.96493 -1.78288,-20.77411 0.0267,-27.65782 5.42477,-20.63623 21.33881,-37.06974 40.70166,-42.03028 6.87077,-1.76021 20.28654,-1.9848 26.65866,-0.44629 19.73734,4.76544 35.82875,20.8777 41.53058,41.58438 1.926,6.99444 2.96266,50.87097 1.38155,58.4736 -1.63934,7.88257 -7.04173,12.66123 -14.3138,12.66123 -4.73462,0 -9.442,-2.25647 -11.40562,-5.46726 -1.0907,-1.78346 -1.12475,-1.78135 -5.79922,0.35766 -9.33596,4.27205 -20.4751,5.99071 -31.22525,4.81773 l -2e-5,-1e-5 z m 17.60129,-31.47753 c 9.57145,-4.51402 14.93529,-12.80781 15.46812,-23.91747 0.28032,-5.84465 9e-4,-7.57237 -1.89101,-11.70551 -2.87574,-6.28144 -7.44788,-11.27929 -12.8368,-14.032 -6.16808,-3.15072 -16.72505,-3.15072 -22.89313,0 -9.09376,4.64518 -14.85554,14.17262 -14.85554,24.56452 0,10.81668 5.48022,19.56239 15.348,24.49338 7.10105,3.54844 14.94393,3.76463 21.66036,0.59708 z m 70.1463,30.66771 c -3.93114,-0.92591 -7.26209,-3.46596 -9.47753,-7.22719 -1.68139,-2.85455 -1.7824,-4.59999 -1.75029,-30.24113 0.0294,-23.39279 0.25943,-28.02346 1.63961,-32.99571 5.42953,-19.56031 18.92447,-33.87928 37.51261,-39.80318 8.73308,-2.78317 22.57606,-3.16586 31.29653,-0.86518 15.53123,4.09751 29.36401,15.30605 35.94217,29.12352 5.7207,12.01635 5.99066,14.02351 5.99066,44.54055 0,25.60713 -0.10522,27.39036 -1.78438,30.24112 -3.42047,5.80707 -9.80593,8.64114 -16.21338,7.19603 -4.16143,-0.93855 -7.39161,-3.3448 -9.66006,-7.19603 -1.64909,-2.79971 -1.8182,-5.09254 -2.23047,-30.24112 -0.42773,-26.09143 -0.52899,-27.36686 -2.45956,-30.97984 -10.37935,-19.42442 -37.54303,-19.431 -48.15542,-0.0117 -1.38012,2.52547 -1.63399,6.29992 -2.0244,30.09929 -0.38319,23.35897 -0.66096,27.60353 -1.96185,29.97891 -1.96914,3.59557 -7.44942,8.38517 -9.59437,8.38517 -0.9242,0 -2.21505,0.15888 -2.86856,0.35306 -0.65352,0.19419 -2.5441,0.0337 -4.20131,-0.35662 l 0,5e-5 z"
       id="path2933"
       sodipodi:nodetypes="csssscccssscccsssssscccssssssscccsccsssssssssscccssssssccssssssssssssssssscc"
       inkscape:export-xdpi="38.064663"
       inkscape:export-ydpi="38.064663" />
    <path
       style="fill:#000000"
       d=""
       id="path2931" />
    <path
       style="fill:url(#linearGradient3821);fill-opacity:1.0"
       d="m 164.88946,233.02454 c -10.99646,-2.60272 -13.88336,-19.12077 -4.55666,-26.07189 3.95351,-2.94653 8.46485,-3.33656 38.84386,-3.35846 28.59369,-0.0206 29.62118,-0.0813 31.91354,-1.88443 2.69075,-2.11656 5.00952,-6.14126 5.00952,-8.6951 0,-1.65367 -0.22466,-1.63422 -5.43566,0.47061 -9.94741,4.01792 -27.93643,4.30437 -38.94631,0.62016 -17.79154,-5.95355 -31.25401,-20.79655 -35.50017,-39.1406 -1.70153,-7.35087 -1.90337,-21.37443 -0.39831,-27.67399 0.58619,-2.45351 2.71565,-7.87355 4.73215,-12.04453 2.94552,-6.09262 5.1633,-9.08497 11.28037,-15.22009 8.1428,-8.166848 15.60873,-12.763568 25.2558,-15.549798 6.51963,-1.88298 19.74602,-1.89585 26.9676,-0.0262 19.34333,5.00784 34.8045,20.815278 40.15694,41.056278 2.94781,11.14761 1.36125,29.86812 -3.31689,39.13731 l -1.74111,3.44978 2.69553,5.47538 c 4.65949,9.46479 5.22437,23.78339 1.33031,33.7211 -5.48712,14.00326 -17.24942,23.67721 -31.24955,25.7013 -7.13403,1.03143 -62.70725,1.05894 -67.04096,0.0332 l 0,-3e-5 z m 55.74945,-68.19678 c 13.57942,-6.3226 19.44223,-22.98727 12.892,-36.64473 -4.56632,-9.52094 -12.02866,-14.78075 -21.86583,-15.41206 -5.36318,-0.34419 -7.07286,-0.0785 -10.81876,1.68113 -9.89921,4.65021 -16.46938,14.59323 -16.48477,24.94739 -0.0117,7.85807 1.9937,13.2681 6.96975,18.80267 7.85322,8.73467 19.24607,11.31028 29.30761,6.6256 z M 77.290286,196.32323 c -16.60926,-2.6935 -30.7194,-18.06749 -33.06024,-36.02144 -0.57661,-4.42258 -0.82907,-25.12385 -0.6637,-54.42345 l 0.26689,-47.285957 2.05497,-3.584072 c 2.96806,-5.176612 7.02062,-7.66127 12.56585,-7.704224 7.63001,-0.0591 12.9857,4.340464 14.43858,11.860938 0.41315,2.138565 0.76867,25.488027 0.79004,51.887695 0.0424,52.42086 -0.0135,51.83344 5.18404,54.47125 1.34113,0.68064 4.44584,1.51901 6.89935,1.86304 7.60193,1.06595 13.31669,6.06277 13.83488,12.09682 0.531424,6.18808 -0.0406,8.10711 -3.55186,11.9164 -2.13074,2.31158 -4.93159,4.26201 -7.01797,4.8871 -3.88342,1.16351 -4.7708,1.16622 -11.74083,0.0359 z m 44.718944,0.075 c -4.21065,-0.9448 -7.38943,-3.49521 -9.47753,-7.60403 -1.69644,-3.33815 -1.79804,-5.5776 -2.06171,-45.444 -0.15254,-23.06305 -0.0228,-44.04477 0.28839,-46.626028 0.95416,-7.91552 6.70663,-12.91035 14.86867,-12.91035 3.29477,0 5.04492,0.56052 7.42977,2.37953 6.49247,4.95205 6.24051,2.75244 6.24051,54.480278 l 0,46.39377 -2.09355,3.36733 c -3.15914,5.08124 -8.9672,7.36075 -15.19455,5.96347 l 0,3e-5 z m 0,-120.401318 c -6.65111,-1.58956 -10.89659,-7.05905 -10.9512,-14.10849 -0.066,-8.514148 5.77522,-14.518223 14.18771,-14.583386 8.78446,-0.06805 14.49769,5.610626 14.49769,14.410006 0,9.87288 -8.28035,16.54129 -17.7342,14.28187 z"
       id="path2933-9"
       sodipodi:nodetypes="cssssssssssssscccsscccsssssccscccssssssssccsssssccccccsssc"
       inkscape:export-xdpi="38.064663"
       inkscape:export-ydpi="38.064663" />
  </g>
</svg>
